<?xml version="1.0" encoding="UTF-8"?>
<!DOCTYPE svg PUBLIC "-//W3C//DTD SVG 1.1//EN" "http://www.w3.org/Graphics/SVG/1.1/DTD/svg11.dtd">
<!-- Creator: CorelDRAW 2021.5 -->
<svg xmlns="http://www.w3.org/2000/svg" xml:space="preserve" width="841mm" height="594mm" version="1.1" style="shape-rendering:geometricPrecision; text-rendering:geometricPrecision; image-rendering:optimizeQuality; fill-rule:evenodd; clip-rule:evenodd"
viewBox="0 0 84100 59400"
 xmlns:xlink="http://www.w3.org/1999/xlink"
 xmlns:xodm="http://www.corel.com/coreldraw/odm/2003">
 <defs>
  <style type="text/css">
   <![CDATA[
    .str0 {stroke:#2B2A29;stroke-width:20;stroke-miterlimit:22.9256}
    .fil7 {fill:none;fill-rule:nonzero}
    .fil6 {fill:#09C5FD}
    .fil2 {fill:#257999}
    .fil4 {fill:#49D2BF}
    .fil3 {fill:#7E56DA}
    .fil1 {fill:#8018B3}
    .fil5 {fill:#EA7AD0}
    .fil0 {fill:#2B2A29;fill-rule:nonzero}
   ]]>
  </style>
   <clipPath id="id0" style="clip-rule:nonzero">
    <path d="M39543.97 23467.52l-494.53 584.13c574.18,49.79 1091.94,119.49 1543.32,209.1 454.7,86.29 876.21,182.54 1261.21,288.75 385,109.52 723.53,219.05 1015.6,335.21 1025.56,428.15 1536.68,1025.57 1536.68,1788.93 0,467.97 -212.41,922.67 -640.56,1370.73 -428.14,448.06 -985.73,846.34 -1669.44,1194.83 -683.71,351.81 -1387.33,623.96 -2107.54,823.1 -723.54,195.82 -1380.69,295.39 -1971.47,295.39 -985.73,0 -1752.41,-182.54 -2303.36,-547.63 -550.95,-368.4 -826.42,-869.57 -826.42,-1503.49 0,-441.42 169.26,-959.18 504.48,-1553.28 338.53,-597.41 859.61,-1340.86 1563.23,-2227.02 -531.03,-26.56 -906.08,-106.21 -1125.13,-238.97 -219.05,-132.76 -331.89,-318.62 -331.89,-560.9 0,-149.36 43.14,-262.2 126.12,-338.54 86.29,-79.65 199.13,-136.08 341.85,-172.59 142.72,-33.19 414.87,-79.65 819.78,-129.44 408.24,-53.1 926,-119.48 1563.24,-195.81 706.94,-869.57 1340.86,-1523.41 1901.77,-1958.19 560.9,-438.11 1161.63,-690.35 1802.19,-756.73 53.11,-6.64 109.53,-9.96 169.27,-9.96 63.06,0 92.93,16.6 92.93,49.79 0,39.83 -73.01,142.71 -219.05,311.98 -146.03,169.27 -381.68,438.1 -710.26,809.83 -325.26,368.4 -713.58,806.51 -1161.64,1314.31 1218.07,-162.63 2213.76,-348.49 2990.39,-560.91 773.32,-209.09 1357.46,-461.33 1752.42,-753.4 394.95,-292.07 594.09,-617.33 594.09,-972.46 0,-434.78 -209.09,-750.08 -630.6,-945.9 -421.51,-195.82 -1068.71,-292.07 -1934.96,-292.07 -481.25,0 -1028.88,49.78 -1649.52,146.03 -617.33,96.25 -1178.24,209.1 -1682.72,331.9 -501.17,122.8 -949.23,255.56 -1340.86,394.96 -391.64,139.39 -587.46,238.96 -587.46,305.34 0,19.91 19.91,39.83 59.74,59.74 315.3,116.17 474.61,212.42 474.61,292.07 0,102.89 -484.57,302.03 -1457.02,597.42 -972.46,295.38 -1626.3,444.74 -1964.83,444.74 -238.97,0 -358.45,-119.49 -358.45,-361.77 0,-285.43 262.2,-799.87 783.28,-1540 521.07,-743.45 995.69,-1218.06 1423.83,-1427.16 149.36,-73.01 497.85,-185.86 1042.16,-341.85 544.31,-155.99 1141.72,-302.03 1792.24,-448.06 650.52,-142.72 1314.31,-262.2 1988.06,-358.45 673.75,-96.25 1271.17,-146.03 1792.24,-146.03 1224.7,0 2144.06,219.05 2761.38,657.15 614.01,438.11 922.68,985.73 922.68,1649.53 0,448.06 -139.4,879.52 -421.51,1294.39 -282.11,414.88 -723.54,806.51 -1320.95,1174.92 -594.1,371.72 -1370.73,696.98 -2329.92,975.78 -955.86,278.79 -2080.99,491.2 -3378.7,640.56zm-1032.2 1254.57c-335.22,401.59 -637.24,756.72 -899.44,1062.06 -262.2,308.67 -451.38,557.59 -564.23,750.09 -112.84,189.18 -169.26,381.68 -169.26,577.5 0,311.98 159.31,587.46 481.25,829.74 321.94,242.29 783.27,365.09 1387.32,365.09 557.59,0 1151.69,-99.57 1782.29,-295.39 633.92,-199.14 1164.96,-454.7 1596.42,-773.32 431.47,-318.62 647.2,-637.24 647.2,-962.5 0,-278.79 -159.31,-507.8 -477.93,-690.34 -315.3,-179.23 -799.87,-338.54 -1447.07,-477.93 -650.52,-139.4 -1427.16,-268.84 -2336.55,-385zm6604.74 3006.98l0 -633.92c348.49,-414.87 614.01,-766.68 796.55,-1058.75 -209.09,-73.02 -358.44,-159.31 -451.38,-265.52 -96.25,-102.89 -142.71,-258.88 -142.71,-464.66 0,-235.64 99.57,-531.03 292.07,-886.16 195.82,-358.45 434.78,-693.66 720.21,-1005.65 285.44,-311.98 544.31,-511.12 776.64,-604.05 92.93,-43.15 179.23,-66.38 265.52,-66.38 129.44,0 195.82,59.74 195.82,185.86 0,109.53 -102.89,331.9 -305.35,670.43 1337.55,-209.09 2180.57,-311.98 2532.38,-311.98 136.07,0 229,13.28 282.11,39.83 109.52,56.42 199.14,192.5 272.15,408.23 69.7,215.74 106.21,428.15 106.21,643.88 0,136.08 -59.74,282.11 -179.22,441.42 -119.49,159.31 -325.26,391.64 -617.33,696.99 -345.17,371.72 -630.61,773.32 -866.25,1208.1 -232.33,434.79 -348.49,763.36 -348.49,982.42 0,305.34 189.18,458.01 564.22,458.01 394.96,0 1081.98,-401.59 2061.08,-1208.1l0 653.84c-540.99,560.9 -985.73,1005.64 -1334.23,1327.58 -351.81,325.26 -673.75,580.82 -972.45,773.32 -298.71,189.18 -564.23,285.43 -799.87,285.43 -272.16,0 -497.85,-126.12 -680.39,-375.04 -182.55,-248.92 -272.16,-610.69 -272.16,-1081.98 0,-278.8 73.02,-597.42 215.74,-952.55 142.71,-358.45 351.81,-743.45 627.28,-1161.64 275.47,-418.19 584.14,-836.38 929.31,-1251.25 -182.54,39.83 -385,79.66 -614.01,122.81 -225.69,43.14 -464.65,86.29 -720.21,132.75 -252.25,43.15 -448.06,79.66 -584.14,106.21 -401.6,806.51 -985.74,1536.68 -1749.1,2190.52zm10494.58 -1413.88c-939.27,1244.61 -1656.17,2130.78 -2144.06,2655.17 -491.2,527.72 -889.48,789.92 -1201.46,789.92 -245.61,0 -471.3,-102.89 -680.39,-305.35 -205.78,-205.77 -368.41,-481.25 -481.25,-829.74 -112.85,-345.17 -169.27,-716.9 -169.27,-1111.85 0,-258.88 23.23,-494.53 73.02,-700.31 49.78,-209.09 139.4,-438.1 275.47,-687.02 136.08,-248.92 318.62,-521.08 540.99,-813.15 222.38,-292.07 497.85,-620.65 819.79,-992.37 195.82,-225.69 358.45,-418.19 491.21,-574.18 132.76,-155.99 262.19,-258.88 388.32,-315.3 126.12,-56.43 331.89,-82.98 617.32,-82.98 209.1,0 404.92,26.55 594.1,82.98 189.18,53.1 282.11,112.84 282.11,169.26 0,116.17 -96.25,328.58 -285.43,633.93 -192.5,302.02 -501.16,673.75 -925.99,1111.85 -424.83,438.1 -912.72,866.25 -1470.3,1287.76 -122.81,385 -185.87,673.75 -185.87,876.21 0,278.79 106.21,418.19 321.94,418.19 76.34,0 205.78,-66.38 388.32,-199.14 179.23,-132.76 487.89,-388.32 919.36,-766.68 428.14,-378.36 816.46,-713.58 1158.32,-1005.65 255.56,-219.05 547.62,-547.63 882.84,-985.73 331.9,-438.11 604.05,-766.68 809.83,-985.74 481.25,-504.48 809.83,-833.06 982.41,-985.73 175.91,-152.67 345.17,-229.01 507.8,-229.01 152.68,0 258.88,49.79 315.31,146.04 53.1,96.25 82.97,295.39 82.97,590.77 0,136.08 -13.28,248.93 -39.83,331.9 -26.55,82.97 -79.65,192.5 -159.31,325.26 -82.97,132.76 -245.6,378.36 -491.2,733.49 -248.93,355.13 -537.68,776.64 -876.21,1261.21 -182.55,262.2 -338.54,544.31 -474.61,852.97 -136.08,305.35 -205.78,537.67 -205.78,693.67 0,335.21 132.76,504.48 398.28,504.48 222.37,0 477.93,-89.61 770,-272.16 288.75,-182.54 736.81,-507.8 1340.86,-982.41l0 653.84c-760.04,700.3 -1320.95,1208.1 -1682.72,1526.72 -361.76,318.62 -677.07,557.59 -942.58,720.22 -265.52,162.63 -517.76,245.6 -760.05,245.6 -544.31,0 -816.46,-325.26 -816.46,-975.78 0,-245.6 79.65,-577.5 242.28,-995.69 162.63,-418.19 424.83,-1025.56 789.92,-1815.47zm10355.17 657.15l0 614.01c-564.23,577.5 -1052.11,1048.8 -1463.67,1417.2 -411.55,365.09 -770,643.88 -1078.66,833.06 -308.66,189.18 -567.54,282.12 -783.28,282.12 -504.48,0 -756.72,-298.71 -756.72,-896.13 0,-481.25 155.99,-1035.51 471.29,-1669.44 315.3,-630.6 770,-1377.37 1360.78,-2233.66 -292.07,162.63 -567.55,348.49 -826.42,557.59 -262.2,212.41 -491.21,431.46 -693.67,663.79 -202.46,229.01 -368.4,424.83 -504.48,587.46 -421.51,474.61 -829.74,959.18 -1218.06,1457.02 -388.32,494.53 -650.52,819.79 -786.6,969.14 -136.08,149.35 -265.51,222.37 -388.32,222.37 -507.8,0 -760.04,-620.65 -760.04,-1868.58 0,-408.23 63.06,-856.29 185.86,-1350.82 122.8,-491.2 454.7,-1145.04 992.37,-1954.87 1135.09,-1699.31 2104.23,-3086.64 2910.74,-4165.3 806.51,-1078.66 1476.94,-1895.13 2007.97,-2449.4 531.04,-554.27 886.17,-826.42 1068.71,-813.15 225.69,19.92 408.23,66.38 547.63,136.08 139.4,69.7 209.09,152.68 209.09,242.29 0,162.63 -109.52,431.46 -335.21,803.19 -222.37,371.72 -607.37,952.54 -1148.36,1745.77 -590.78,833.06 -1008.97,1420.52 -1254.57,1762.37 -245.61,338.54 -614.01,823.11 -1105.22,1447.07 -487.89,627.29 -935.95,1184.88 -1340.86,1672.76 -404.92,487.89 -866.25,1018.93 -1384.01,1589.79l0 1164.96c869.57,-962.5 1619.65,-1752.42 2253.58,-2366.43 633.92,-617.33 1171.59,-1081.98 1613.01,-1393.96 441.43,-315.31 763.37,-471.3 972.46,-471.3 192.5,0 375.05,116.17 544.31,345.18 169.27,229 252.24,418.19 252.24,564.22 0,66.38 -33.19,146.03 -96.25,242.28 -467.97,557.59 -839.69,1018.93 -1115.17,1387.33 -275.47,365.09 -487.89,693.67 -637.24,979.1 -149.35,288.75 -222.37,537.67 -222.37,743.45 0,305.34 146.03,458.01 438.1,458.01 311.99,0 1002.33,-418.19 2071.04,-1254.57zm1377.37 3106.56c-109.52,0 -202.45,-43.15 -282.11,-126.12 -76.34,-86.3 -116.16,-202.46 -116.16,-351.81 0,-116.17 69.69,-325.26 209.09,-627.29 139.4,-302.02 315.3,-570.86 527.72,-809.83 209.09,-235.64 428.14,-355.13 657.15,-355.13 278.8,0 418.19,165.95 418.19,497.85 0,182.54 -73.01,414.87 -222.37,706.94 -149.35,288.75 -335.21,537.67 -557.58,750.09 -219.06,209.09 -431.47,315.3 -633.93,315.3z"/>
   </clipPath>
 </defs>
 <g id="Layer_x0020_1">
  <metadata id="CorelCorpID_0Corel-Layer"/>
  <path class="fil0" d="M39543.97 23467.52l-494.53 584.13c574.18,49.79 1091.94,119.49 1543.32,209.1 454.7,86.29 876.21,182.54 1261.21,288.75 385,109.52 723.53,219.05 1015.6,335.21 1025.56,428.15 1536.68,1025.57 1536.68,1788.93 0,467.97 -212.41,922.67 -640.56,1370.73 -428.14,448.06 -985.73,846.34 -1669.44,1194.83 -683.71,351.81 -1387.33,623.96 -2107.54,823.1 -723.54,195.82 -1380.69,295.39 -1971.47,295.39 -985.73,0 -1752.41,-182.54 -2303.36,-547.63 -550.95,-368.4 -826.42,-869.57 -826.42,-1503.49 0,-441.42 169.26,-959.18 504.48,-1553.28 338.53,-597.41 859.61,-1340.86 1563.23,-2227.02 -531.03,-26.56 -906.08,-106.21 -1125.13,-238.97 -219.05,-132.76 -331.89,-318.62 -331.89,-560.9 0,-149.36 43.14,-262.2 126.12,-338.54 86.29,-79.65 199.13,-136.08 341.85,-172.59 142.72,-33.19 414.87,-79.65 819.78,-129.44 408.24,-53.1 926,-119.48 1563.24,-195.81 706.94,-869.57 1340.86,-1523.41 1901.77,-1958.19 560.9,-438.11 1161.63,-690.35 1802.19,-756.73 53.11,-6.64 109.53,-9.96 169.27,-9.96 63.06,0 92.93,16.6 92.93,49.79 0,39.83 -73.01,142.71 -219.05,311.98 -146.03,169.27 -381.68,438.1 -710.26,809.83 -325.26,368.4 -713.58,806.51 -1161.64,1314.31 1218.07,-162.63 2213.76,-348.49 2990.39,-560.91 773.32,-209.09 1357.46,-461.33 1752.42,-753.4 394.95,-292.07 594.09,-617.33 594.09,-972.46 0,-434.78 -209.09,-750.08 -630.6,-945.9 -421.51,-195.82 -1068.71,-292.07 -1934.96,-292.07 -481.25,0 -1028.88,49.78 -1649.52,146.03 -617.33,96.25 -1178.24,209.1 -1682.72,331.9 -501.17,122.8 -949.23,255.56 -1340.86,394.96 -391.64,139.39 -587.46,238.96 -587.46,305.34 0,19.91 19.91,39.83 59.74,59.74 315.3,116.17 474.61,212.42 474.61,292.07 0,102.89 -484.57,302.03 -1457.02,597.42 -972.46,295.38 -1626.3,444.74 -1964.83,444.74 -238.97,0 -358.45,-119.49 -358.45,-361.77 0,-285.43 262.2,-799.87 783.28,-1540 521.07,-743.45 995.69,-1218.06 1423.83,-1427.16 149.36,-73.01 497.85,-185.86 1042.16,-341.85 544.31,-155.99 1141.72,-302.03 1792.24,-448.06 650.52,-142.72 1314.31,-262.2 1988.06,-358.45 673.75,-96.25 1271.17,-146.03 1792.24,-146.03 1224.7,0 2144.06,219.05 2761.38,657.15 614.01,438.11 922.68,985.73 922.68,1649.53 0,448.06 -139.4,879.52 -421.51,1294.39 -282.11,414.88 -723.54,806.51 -1320.95,1174.92 -594.1,371.72 -1370.73,696.98 -2329.92,975.78 -955.86,278.79 -2080.99,491.2 -3378.7,640.56zm-1032.2 1254.57c-335.22,401.59 -637.24,756.72 -899.44,1062.06 -262.2,308.67 -451.38,557.59 -564.23,750.09 -112.84,189.18 -169.26,381.68 -169.26,577.5 0,311.98 159.31,587.46 481.25,829.74 321.94,242.29 783.27,365.09 1387.32,365.09 557.59,0 1151.69,-99.57 1782.29,-295.39 633.92,-199.14 1164.96,-454.7 1596.42,-773.32 431.47,-318.62 647.2,-637.24 647.2,-962.5 0,-278.79 -159.31,-507.8 -477.93,-690.34 -315.3,-179.23 -799.87,-338.54 -1447.07,-477.93 -650.52,-139.4 -1427.16,-268.84 -2336.55,-385zm6604.74 3006.98l0 -633.92c348.49,-414.87 614.01,-766.68 796.55,-1058.75 -209.09,-73.02 -358.44,-159.31 -451.38,-265.52 -96.25,-102.89 -142.71,-258.88 -142.71,-464.66 0,-235.64 99.57,-531.03 292.07,-886.16 195.82,-358.45 434.78,-693.66 720.21,-1005.65 285.44,-311.98 544.31,-511.12 776.64,-604.05 92.93,-43.15 179.23,-66.38 265.52,-66.38 129.44,0 195.82,59.74 195.82,185.86 0,109.53 -102.89,331.9 -305.35,670.43 1337.55,-209.09 2180.57,-311.98 2532.38,-311.98 136.07,0 229,13.28 282.11,39.83 109.52,56.42 199.14,192.5 272.15,408.23 69.7,215.74 106.21,428.15 106.21,643.88 0,136.08 -59.74,282.11 -179.22,441.42 -119.49,159.31 -325.26,391.64 -617.33,696.99 -345.17,371.72 -630.61,773.32 -866.25,1208.1 -232.33,434.79 -348.49,763.36 -348.49,982.42 0,305.34 189.18,458.01 564.22,458.01 394.96,0 1081.98,-401.59 2061.08,-1208.1l0 653.84c-540.99,560.9 -985.73,1005.64 -1334.23,1327.58 -351.81,325.26 -673.75,580.82 -972.45,773.32 -298.71,189.18 -564.23,285.43 -799.87,285.43 -272.16,0 -497.85,-126.12 -680.39,-375.04 -182.55,-248.92 -272.16,-610.69 -272.16,-1081.98 0,-278.8 73.02,-597.42 215.74,-952.55 142.71,-358.45 351.81,-743.45 627.28,-1161.64 275.47,-418.19 584.14,-836.38 929.31,-1251.25 -182.54,39.83 -385,79.66 -614.01,122.81 -225.69,43.14 -464.65,86.29 -720.21,132.75 -252.25,43.15 -448.06,79.66 -584.14,106.21 -401.6,806.51 -985.74,1536.68 -1749.1,2190.52zm10494.58 -1413.88c-939.27,1244.61 -1656.17,2130.78 -2144.06,2655.17 -491.2,527.72 -889.48,789.92 -1201.46,789.92 -245.61,0 -471.3,-102.89 -680.39,-305.35 -205.78,-205.77 -368.41,-481.25 -481.25,-829.74 -112.85,-345.17 -169.27,-716.9 -169.27,-1111.85 0,-258.88 23.23,-494.53 73.02,-700.31 49.78,-209.09 139.4,-438.1 275.47,-687.02 136.08,-248.92 318.62,-521.08 540.99,-813.15 222.38,-292.07 497.85,-620.65 819.79,-992.37 195.82,-225.69 358.45,-418.19 491.21,-574.18 132.76,-155.99 262.19,-258.88 388.32,-315.3 126.12,-56.43 331.89,-82.98 617.32,-82.98 209.1,0 404.92,26.55 594.1,82.98 189.18,53.1 282.11,112.84 282.11,169.26 0,116.17 -96.25,328.58 -285.43,633.93 -192.5,302.02 -501.16,673.75 -925.99,1111.85 -424.83,438.1 -912.72,866.25 -1470.3,1287.76 -122.81,385 -185.87,673.75 -185.87,876.21 0,278.79 106.21,418.19 321.94,418.19 76.34,0 205.78,-66.38 388.32,-199.14 179.23,-132.76 487.89,-388.32 919.36,-766.68 428.14,-378.36 816.46,-713.58 1158.32,-1005.65 255.56,-219.05 547.62,-547.63 882.84,-985.73 331.9,-438.11 604.05,-766.68 809.83,-985.74 481.25,-504.48 809.83,-833.06 982.41,-985.73 175.91,-152.67 345.17,-229.01 507.8,-229.01 152.68,0 258.88,49.79 315.31,146.04 53.1,96.25 82.97,295.39 82.97,590.77 0,136.08 -13.28,248.93 -39.83,331.9 -26.55,82.97 -79.65,192.5 -159.31,325.26 -82.97,132.76 -245.6,378.36 -491.2,733.49 -248.93,355.13 -537.68,776.64 -876.21,1261.21 -182.55,262.2 -338.54,544.31 -474.61,852.97 -136.08,305.35 -205.78,537.67 -205.78,693.67 0,335.21 132.76,504.48 398.28,504.48 222.37,0 477.93,-89.61 770,-272.16 288.75,-182.54 736.81,-507.8 1340.86,-982.41l0 653.84c-760.04,700.3 -1320.95,1208.1 -1682.72,1526.72 -361.76,318.62 -677.07,557.59 -942.58,720.22 -265.52,162.63 -517.76,245.6 -760.05,245.6 -544.31,0 -816.46,-325.26 -816.46,-975.78 0,-245.6 79.65,-577.5 242.28,-995.69 162.63,-418.19 424.83,-1025.56 789.92,-1815.47zm10355.17 657.15l0 614.01c-564.23,577.5 -1052.11,1048.8 -1463.67,1417.2 -411.55,365.09 -770,643.88 -1078.66,833.06 -308.66,189.18 -567.54,282.12 -783.28,282.12 -504.48,0 -756.72,-298.71 -756.72,-896.13 0,-481.25 155.99,-1035.51 471.29,-1669.44 315.3,-630.6 770,-1377.37 1360.78,-2233.66 -292.07,162.63 -567.55,348.49 -826.42,557.59 -262.2,212.41 -491.21,431.46 -693.67,663.79 -202.46,229.01 -368.4,424.83 -504.48,587.46 -421.51,474.61 -829.74,959.18 -1218.06,1457.02 -388.32,494.53 -650.52,819.79 -786.6,969.14 -136.08,149.35 -265.51,222.37 -388.32,222.37 -507.8,0 -760.04,-620.65 -760.04,-1868.58 0,-408.23 63.06,-856.29 185.86,-1350.82 122.8,-491.2 454.7,-1145.04 992.37,-1954.87 1135.09,-1699.31 2104.23,-3086.64 2910.74,-4165.3 806.51,-1078.66 1476.94,-1895.13 2007.97,-2449.4 531.04,-554.27 886.17,-826.42 1068.71,-813.15 225.69,19.92 408.23,66.38 547.63,136.08 139.4,69.7 209.09,152.68 209.09,242.29 0,162.63 -109.52,431.46 -335.21,803.19 -222.37,371.72 -607.37,952.54 -1148.36,1745.77 -590.78,833.06 -1008.97,1420.52 -1254.57,1762.37 -245.61,338.54 -614.01,823.11 -1105.22,1447.07 -487.89,627.29 -935.95,1184.88 -1340.86,1672.76 -404.92,487.89 -866.25,1018.93 -1384.01,1589.79l0 1164.96c869.57,-962.5 1619.65,-1752.42 2253.58,-2366.43 633.92,-617.33 1171.59,-1081.98 1613.01,-1393.96 441.43,-315.31 763.37,-471.3 972.46,-471.3 192.5,0 375.05,116.17 544.31,345.18 169.27,229 252.24,418.19 252.24,564.22 0,66.38 -33.19,146.03 -96.25,242.28 -467.97,557.59 -839.69,1018.93 -1115.17,1387.33 -275.47,365.09 -487.89,693.67 -637.24,979.1 -149.35,288.75 -222.37,537.67 -222.37,743.45 0,305.34 146.03,458.01 438.1,458.01 311.99,0 1002.33,-418.19 2071.04,-1254.57zm1377.37 3106.56c-109.52,0 -202.45,-43.15 -282.11,-126.12 -76.34,-86.3 -116.16,-202.46 -116.16,-351.81 0,-116.17 69.69,-325.26 209.09,-627.29 139.4,-302.02 315.3,-570.86 527.72,-809.83 209.09,-235.64 428.14,-355.13 657.15,-355.13 278.8,0 418.19,165.95 418.19,497.85 0,182.54 -73.01,414.87 -222.37,706.94 -149.35,288.75 -335.21,537.67 -557.58,750.09 -219.06,209.09 -431.47,315.3 -633.93,315.3z"/>
  <g style="clip-path:url(#id0)">
   <g id="_2726667119312">
    <g>
     <ellipse class="fil1 str0" cx="39738.9" cy="17441.94" rx="9019.62" ry="5637.26"/>
     <ellipse class="fil2" cx="38010.14" cy="27062.88" rx="8493.48" ry="6388.9"/>
     <ellipse class="fil3" cx="50261.8" cy="18644.56" rx="6013.08" ry="8944.46"/>
     <ellipse class="fil4" cx="58547.02" cy="21804.74" rx="6781.94" ry="8189.51"/>
     <ellipse class="fil5" cx="52366.38" cy="29543.27" rx="6781.94" ry="8189.51"/>
     <ellipse class="fil6" cx="66948.11" cy="25484.44" rx="6781.94" ry="8189.51"/>
    </g>
   </g>
  </g>
  <path class="fil7" d="M39543.97 23467.52l-494.53 584.13c574.18,49.79 1091.94,119.49 1543.32,209.1 454.7,86.29 876.21,182.54 1261.21,288.75 385,109.52 723.53,219.05 1015.6,335.21 1025.56,428.15 1536.68,1025.57 1536.68,1788.93 0,467.97 -212.41,922.67 -640.56,1370.73 -428.14,448.06 -985.73,846.34 -1669.44,1194.83 -683.71,351.81 -1387.33,623.96 -2107.54,823.1 -723.54,195.82 -1380.69,295.39 -1971.47,295.39 -985.73,0 -1752.41,-182.54 -2303.36,-547.63 -550.95,-368.4 -826.42,-869.57 -826.42,-1503.49 0,-441.42 169.26,-959.18 504.48,-1553.28 338.53,-597.41 859.61,-1340.86 1563.23,-2227.02 -531.03,-26.56 -906.08,-106.21 -1125.13,-238.97 -219.05,-132.76 -331.89,-318.62 -331.89,-560.9 0,-149.36 43.14,-262.2 126.12,-338.54 86.29,-79.65 199.13,-136.08 341.85,-172.59 142.72,-33.19 414.87,-79.65 819.78,-129.44 408.24,-53.1 926,-119.48 1563.24,-195.81 706.94,-869.57 1340.86,-1523.41 1901.77,-1958.19 560.9,-438.11 1161.63,-690.35 1802.19,-756.73 53.11,-6.64 109.53,-9.96 169.27,-9.96 63.06,0 92.93,16.6 92.93,49.79 0,39.83 -73.01,142.71 -219.05,311.98 -146.03,169.27 -381.68,438.1 -710.26,809.83 -325.26,368.4 -713.58,806.51 -1161.64,1314.31 1218.07,-162.63 2213.76,-348.49 2990.39,-560.91 773.32,-209.09 1357.46,-461.33 1752.42,-753.4 394.95,-292.07 594.09,-617.33 594.09,-972.46 0,-434.78 -209.09,-750.08 -630.6,-945.9 -421.51,-195.82 -1068.71,-292.07 -1934.96,-292.07 -481.25,0 -1028.88,49.78 -1649.52,146.03 -617.33,96.25 -1178.24,209.1 -1682.72,331.9 -501.17,122.8 -949.23,255.56 -1340.86,394.96 -391.64,139.39 -587.46,238.96 -587.46,305.34 0,19.91 19.91,39.83 59.74,59.74 315.3,116.17 474.61,212.42 474.61,292.07 0,102.89 -484.57,302.03 -1457.02,597.42 -972.46,295.38 -1626.3,444.74 -1964.83,444.74 -238.97,0 -358.45,-119.49 -358.45,-361.77 0,-285.43 262.2,-799.87 783.28,-1540 521.07,-743.45 995.69,-1218.06 1423.83,-1427.16 149.36,-73.01 497.85,-185.86 1042.16,-341.85 544.31,-155.99 1141.72,-302.03 1792.24,-448.06 650.52,-142.72 1314.31,-262.2 1988.06,-358.45 673.75,-96.25 1271.17,-146.03 1792.24,-146.03 1224.7,0 2144.06,219.05 2761.38,657.15 614.01,438.11 922.68,985.73 922.68,1649.53 0,448.06 -139.4,879.52 -421.51,1294.39 -282.11,414.88 -723.54,806.51 -1320.95,1174.92 -594.1,371.72 -1370.73,696.98 -2329.92,975.78 -955.86,278.79 -2080.99,491.2 -3378.7,640.56zm-1032.2 1254.57c-335.22,401.59 -637.24,756.72 -899.44,1062.06 -262.2,308.67 -451.38,557.59 -564.23,750.09 -112.84,189.18 -169.26,381.68 -169.26,577.5 0,311.98 159.31,587.46 481.25,829.74 321.94,242.29 783.27,365.09 1387.32,365.09 557.59,0 1151.69,-99.57 1782.29,-295.39 633.92,-199.14 1164.96,-454.7 1596.42,-773.32 431.47,-318.62 647.2,-637.24 647.2,-962.5 0,-278.79 -159.31,-507.8 -477.93,-690.34 -315.3,-179.23 -799.87,-338.54 -1447.07,-477.93 -650.52,-139.4 -1427.16,-268.84 -2336.55,-385zm6604.74 3006.98l0 -633.92c348.49,-414.87 614.01,-766.68 796.55,-1058.75 -209.09,-73.02 -358.44,-159.31 -451.38,-265.52 -96.25,-102.89 -142.71,-258.88 -142.71,-464.66 0,-235.64 99.57,-531.03 292.07,-886.16 195.82,-358.45 434.78,-693.66 720.21,-1005.65 285.44,-311.98 544.31,-511.12 776.64,-604.05 92.93,-43.15 179.23,-66.38 265.52,-66.38 129.44,0 195.82,59.74 195.82,185.86 0,109.53 -102.89,331.9 -305.35,670.43 1337.55,-209.09 2180.57,-311.98 2532.38,-311.98 136.07,0 229,13.28 282.11,39.83 109.52,56.42 199.14,192.5 272.15,408.23 69.7,215.74 106.21,428.15 106.21,643.88 0,136.08 -59.74,282.11 -179.22,441.42 -119.49,159.31 -325.26,391.64 -617.33,696.99 -345.17,371.72 -630.61,773.32 -866.25,1208.1 -232.33,434.79 -348.49,763.36 -348.49,982.42 0,305.34 189.18,458.01 564.22,458.01 394.96,0 1081.98,-401.59 2061.08,-1208.1l0 653.84c-540.99,560.9 -985.73,1005.64 -1334.23,1327.58 -351.81,325.26 -673.75,580.82 -972.45,773.32 -298.71,189.18 -564.23,285.43 -799.87,285.43 -272.16,0 -497.85,-126.12 -680.39,-375.04 -182.55,-248.92 -272.16,-610.69 -272.16,-1081.98 0,-278.8 73.02,-597.42 215.74,-952.55 142.71,-358.45 351.81,-743.45 627.28,-1161.64 275.47,-418.19 584.14,-836.38 929.31,-1251.25 -182.54,39.83 -385,79.66 -614.01,122.81 -225.69,43.14 -464.65,86.29 -720.21,132.75 -252.25,43.15 -448.06,79.66 -584.14,106.21 -401.6,806.51 -985.74,1536.68 -1749.1,2190.52zm10494.58 -1413.88c-939.27,1244.61 -1656.17,2130.78 -2144.06,2655.17 -491.2,527.72 -889.48,789.92 -1201.46,789.92 -245.61,0 -471.3,-102.89 -680.39,-305.35 -205.78,-205.77 -368.41,-481.25 -481.25,-829.74 -112.85,-345.17 -169.27,-716.9 -169.27,-1111.85 0,-258.88 23.23,-494.53 73.02,-700.31 49.78,-209.09 139.4,-438.1 275.47,-687.02 136.08,-248.92 318.62,-521.08 540.99,-813.15 222.38,-292.07 497.85,-620.65 819.79,-992.37 195.82,-225.69 358.45,-418.19 491.21,-574.18 132.76,-155.99 262.19,-258.88 388.32,-315.3 126.12,-56.43 331.89,-82.98 617.32,-82.98 209.1,0 404.92,26.55 594.1,82.98 189.18,53.1 282.11,112.84 282.11,169.26 0,116.17 -96.25,328.58 -285.43,633.93 -192.5,302.02 -501.16,673.75 -925.99,1111.85 -424.83,438.1 -912.72,866.25 -1470.3,1287.76 -122.81,385 -185.87,673.75 -185.87,876.21 0,278.79 106.21,418.19 321.94,418.19 76.34,0 205.78,-66.38 388.32,-199.14 179.23,-132.76 487.89,-388.32 919.36,-766.68 428.14,-378.36 816.46,-713.58 1158.32,-1005.65 255.56,-219.05 547.62,-547.63 882.84,-985.73 331.9,-438.11 604.05,-766.68 809.83,-985.74 481.25,-504.48 809.83,-833.06 982.41,-985.73 175.91,-152.67 345.17,-229.01 507.8,-229.01 152.68,0 258.88,49.79 315.31,146.04 53.1,96.25 82.97,295.39 82.97,590.77 0,136.08 -13.28,248.93 -39.83,331.9 -26.55,82.97 -79.65,192.5 -159.31,325.26 -82.97,132.76 -245.6,378.36 -491.2,733.49 -248.93,355.13 -537.68,776.64 -876.21,1261.21 -182.55,262.2 -338.54,544.31 -474.61,852.97 -136.08,305.35 -205.78,537.67 -205.78,693.67 0,335.21 132.76,504.48 398.28,504.48 222.37,0 477.93,-89.61 770,-272.16 288.75,-182.54 736.81,-507.8 1340.86,-982.41l0 653.84c-760.04,700.3 -1320.95,1208.1 -1682.72,1526.72 -361.76,318.62 -677.07,557.59 -942.58,720.22 -265.52,162.63 -517.76,245.6 -760.05,245.6 -544.31,0 -816.46,-325.26 -816.46,-975.78 0,-245.6 79.65,-577.5 242.28,-995.69 162.63,-418.19 424.83,-1025.56 789.92,-1815.47zm10355.17 657.15l0 614.01c-564.23,577.5 -1052.11,1048.8 -1463.67,1417.2 -411.55,365.09 -770,643.88 -1078.66,833.06 -308.66,189.18 -567.54,282.12 -783.28,282.12 -504.48,0 -756.72,-298.71 -756.72,-896.13 0,-481.25 155.99,-1035.51 471.29,-1669.44 315.3,-630.6 770,-1377.37 1360.78,-2233.66 -292.07,162.63 -567.55,348.49 -826.42,557.59 -262.2,212.41 -491.21,431.46 -693.67,663.79 -202.46,229.01 -368.4,424.83 -504.48,587.46 -421.51,474.61 -829.74,959.18 -1218.06,1457.02 -388.32,494.53 -650.52,819.79 -786.6,969.14 -136.08,149.35 -265.51,222.37 -388.32,222.37 -507.8,0 -760.04,-620.65 -760.04,-1868.58 0,-408.23 63.06,-856.29 185.86,-1350.82 122.8,-491.2 454.7,-1145.04 992.37,-1954.87 1135.09,-1699.31 2104.23,-3086.64 2910.74,-4165.3 806.51,-1078.66 1476.94,-1895.13 2007.97,-2449.4 531.04,-554.27 886.17,-826.42 1068.71,-813.15 225.69,19.92 408.23,66.38 547.63,136.08 139.4,69.7 209.09,152.68 209.09,242.29 0,162.63 -109.52,431.46 -335.21,803.19 -222.37,371.72 -607.37,952.54 -1148.36,1745.77 -590.78,833.06 -1008.97,1420.52 -1254.57,1762.37 -245.61,338.54 -614.01,823.11 -1105.22,1447.07 -487.89,627.29 -935.95,1184.88 -1340.86,1672.76 -404.92,487.89 -866.25,1018.93 -1384.01,1589.79l0 1164.96c869.57,-962.5 1619.65,-1752.42 2253.58,-2366.43 633.92,-617.33 1171.59,-1081.98 1613.01,-1393.96 441.43,-315.31 763.37,-471.3 972.46,-471.3 192.5,0 375.05,116.17 544.31,345.18 169.27,229 252.24,418.19 252.24,564.22 0,66.38 -33.19,146.03 -96.25,242.28 -467.97,557.59 -839.69,1018.93 -1115.17,1387.33 -275.47,365.09 -487.89,693.67 -637.24,979.1 -149.35,288.75 -222.37,537.67 -222.37,743.45 0,305.34 146.03,458.01 438.1,458.01 311.99,0 1002.33,-418.19 2071.04,-1254.57zm1377.37 3106.56c-109.52,0 -202.45,-43.15 -282.11,-126.12 -76.34,-86.3 -116.16,-202.46 -116.16,-351.81 0,-116.17 69.69,-325.26 209.09,-627.29 139.4,-302.02 315.3,-570.86 527.72,-809.83 209.09,-235.64 428.14,-355.13 657.15,-355.13 278.8,0 418.19,165.95 418.19,497.85 0,182.54 -73.01,414.87 -222.37,706.94 -149.35,288.75 -335.21,537.67 -557.58,750.09 -219.06,209.09 -431.47,315.3 -633.93,315.3z"/>
 </g>
</svg>
